<svg xmlns="http://www.w3.org/2000/svg" xmlns:xlink="http://www.w3.org/1999/xlink" viewBox="0 0 200 250"><defs><style>.cls-1{isolation:isolate;}.cls-2{fill:#6dcdf4;}.cls-10,.cls-12,.cls-16,.cls-25,.cls-26,.cls-27,.cls-28,.cls-3,.cls-31,.cls-4,.cls-5,.cls-6,.cls-7,.cls-8,.cls-9{mix-blend-mode:multiply;}.cls-3{fill:url(#Degradado_sin_nombre_182);}.cls-4{fill:url(#Degradado_sin_nombre_182-2);}.cls-5{fill:url(#Degradado_sin_nombre_182-3);}.cls-6{fill:url(#Degradado_sin_nombre_182-4);}.cls-7{fill:url(#Degradado_sin_nombre_182-5);}.cls-8{fill:url(#Degradado_sin_nombre_182-6);}.cls-9{fill:url(#Degradado_sin_nombre_182-7);}.cls-10{fill:url(#Degradado_sin_nombre_182-8);}.cls-11{fill:url(#Degradado_sin_nombre_171);}.cls-12,.cls-16{opacity:0.4;}.cls-12{fill:url(#Degradado_sin_nombre_20);}.cls-13{fill:url(#Degradado_sin_nombre_172);}.cls-14{fill:url(#Degradado_sin_nombre_171-2);}.cls-15{fill:#62489d;}.cls-16{fill:url(#Degradado_sin_nombre_20-2);}.cls-17{fill:#422f8c;}.cls-18{fill:url(#Degradado_sin_nombre_178);}.cls-19{fill:#4c3393;}.cls-20,.cls-25,.cls-26,.cls-27,.cls-28,.cls-31,.cls-41{opacity:0.3;}.cls-21{fill:url(#Degradado_sin_nombre_172-2);}.cls-22{fill:url(#Degradado_sin_nombre_171-3);}.cls-23,.cls-24,.cls-41{fill:none;stroke-miterlimit:10;}.cls-23{stroke:#a65ba4;}.cls-23,.cls-24{stroke-width:4.99px;}.cls-24,.cls-41{stroke:#62489d;}.cls-25{fill:url(#Degradado_sin_nombre_20-3);}.cls-26{fill:url(#Degradado_sin_nombre_20-4);}.cls-27{fill:url(#Degradado_sin_nombre_20-5);}.cls-28{fill:url(#Degradado_sin_nombre_20-6);}.cls-29{fill:#a65ba4;}.cls-30{font-size:17.19px;fill:#8e8db3;font-family:Poppins-Bold, Poppins Bold;font-weight:700;letter-spacing:-0.05em;}.cls-31{fill:url(#Degradado_sin_nombre_20-7);}.cls-32{fill:url(#Degradado_sin_nombre_179);}.cls-33{fill:url(#Degradado_sin_nombre_178-2);}.cls-34{fill:url(#Degradado_sin_nombre_177);}.cls-35{fill:url(#Degradado_sin_nombre_176);}.cls-36{fill:url(#Degradado_sin_nombre_175);}.cls-37{fill:url(#Degradado_sin_nombre_174);}.cls-38{fill:url(#Degradado_sin_nombre_173);}.cls-39{fill:url(#Degradado_sin_nombre_172-3);}.cls-40{fill:url(#Degradado_sin_nombre_171-4);}.cls-41{stroke-width:0.36px;}.cls-42{fill:#b875b1;}.cls-43{fill:url(#Degradado_sin_nombre_168);}.cls-44{fill:url(#Degradado_sin_nombre_167);}.cls-45{fill:url(#Degradado_sin_nombre_170);}.cls-46{fill:url(#Degradado_sin_nombre_169);}.cls-47{fill:url(#Degradado_sin_nombre_168-2);}.cls-48{fill:url(#Degradado_sin_nombre_167-2);}.cls-49{fill:url(#Degradado_sin_nombre_178-4);}</style><linearGradient id="Degradado_sin_nombre_182" x1="58.56" y1="232.14" x2="74.15" y2="223.41" gradientUnits="userSpaceOnUse"><stop offset="0" stop-color="#cfcee7" stop-opacity="0"/><stop offset="1" stop-color="#cfcee7"/></linearGradient><linearGradient id="Degradado_sin_nombre_182-2" x1="96.11" y1="244.85" x2="110.45" y2="233.31" xlink:href="#Degradado_sin_nombre_182"/><linearGradient id="Degradado_sin_nombre_182-3" x1="20.03" y1="223.62" x2="67.98" y2="197.07" xlink:href="#Degradado_sin_nombre_182"/><linearGradient id="Degradado_sin_nombre_182-4" x1="18.16" y1="223.62" x2="66.11" y2="197.07" xlink:href="#Degradado_sin_nombre_182"/><linearGradient id="Degradado_sin_nombre_182-5" x1="-276.17" y1="212.96" x2="-228.21" y2="186.41" gradientTransform="matrix(-1.17, -0.1, 0.1, 1.06, -183.05, -21.33)" xlink:href="#Degradado_sin_nombre_182"/><linearGradient id="Degradado_sin_nombre_182-6" x1="-274.33" y1="209.82" x2="-226.38" y2="183.27" gradientTransform="matrix(-1.17, -0.1, 0.1, 1.06, -183.05, -21.33)" xlink:href="#Degradado_sin_nombre_182"/><linearGradient id="Degradado_sin_nombre_182-7" x1="-288.43" y1="196.7" x2="-252.18" y2="176.63" gradientTransform="matrix(-1.17, -0.1, 0.1, 1.06, -183.05, -21.33)" xlink:href="#Degradado_sin_nombre_182"/><linearGradient id="Degradado_sin_nombre_182-8" x1="-287.04" y1="194.32" x2="-250.79" y2="174.25" gradientTransform="matrix(-1.17, -0.1, 0.1, 1.06, -183.05, -21.33)" xlink:href="#Degradado_sin_nombre_182"/><linearGradient id="Degradado_sin_nombre_171" x1="-470.35" y1="-1190.86" x2="-470.35" y2="-1249.27" gradientTransform="matrix(0.8, 0.5, -0.97, 0.56, -753.26, 1086.17)" gradientUnits="userSpaceOnUse"><stop offset="0" stop-color="#e8dded"/><stop offset="1" stop-color="#f9fafc"/></linearGradient><linearGradient id="Degradado_sin_nombre_20" x1="53.1" y1="183.94" x2="53.1" y2="131.1" gradientUnits="userSpaceOnUse"><stop offset="0" stop-color="#62489d"/><stop offset="0.02" stop-color="#62489d" stop-opacity="0.97"/><stop offset="0.22" stop-color="#62489d" stop-opacity="0.73"/><stop offset="0.43" stop-color="#62489d" stop-opacity="0.54"/><stop offset="0.62" stop-color="#62489d" stop-opacity="0.41"/><stop offset="0.82" stop-color="#62489d" stop-opacity="0.33"/><stop offset="1" stop-color="#62489d" stop-opacity="0.3"/></linearGradient><linearGradient id="Degradado_sin_nombre_172" x1="124.44" y1="225.49" x2="124.44" y2="127.8" gradientUnits="userSpaceOnUse"><stop offset="0" stop-color="#c6b4d8"/><stop offset="1" stop-color="#cfcee7"/></linearGradient><linearGradient id="Degradado_sin_nombre_171-2" x1="3880.46" y1="985.61" x2="3880.46" y2="932.44" gradientTransform="matrix(-0.87, -0.5, 0, 1.15, 3483.42, 1010.29)" xlink:href="#Degradado_sin_nombre_171"/><linearGradient id="Degradado_sin_nombre_20-2" x1="3855.61" y1="942.49" x2="3915.56" y2="992.06" gradientTransform="matrix(-0.87, -0.5, 0, 1.15, 3483.42, 1010.29)" xlink:href="#Degradado_sin_nombre_20"/><linearGradient id="Degradado_sin_nombre_178" x1="54.26" y1="207.74" x2="54.26" y2="128.19" gradientUnits="userSpaceOnUse"><stop offset="0" stop-color="#4d3393"/><stop offset="0.03" stop-color="#4f3594"/><stop offset="0.46" stop-color="#62489d"/><stop offset="1" stop-color="#6d5aa6"/></linearGradient><linearGradient id="Degradado_sin_nombre_172-2" x1="126.41" y1="158.14" x2="126.41" y2="45.74" xlink:href="#Degradado_sin_nombre_172"/><linearGradient id="Degradado_sin_nombre_171-3" x1="-277.2" y1="1261.56" x2="-277.2" y2="1201.67" gradientTransform="matrix(0.87, 0.5, 0, 1.15, 365.37, -1180.93)" xlink:href="#Degradado_sin_nombre_171"/><linearGradient id="Degradado_sin_nombre_20-3" x1="-267.96" y1="1220.31" x2="-238.26" y2="1220.31" gradientTransform="matrix(0.87, 0.5, 0, 1.15, 365.37, -1180.93)" xlink:href="#Degradado_sin_nombre_20"/><linearGradient id="Degradado_sin_nombre_20-4" x1="-267.96" y1="1235.45" x2="-238.26" y2="1235.45" gradientTransform="matrix(0.87, 0.5, 0, 1.15, 365.37, -1180.93)" xlink:href="#Degradado_sin_nombre_20"/><linearGradient id="Degradado_sin_nombre_20-5" x1="-267.96" y1="1243.61" x2="-238.26" y2="1243.61" gradientTransform="matrix(0.87, 0.5, 0, 1.15, 365.37, -1180.93)" xlink:href="#Degradado_sin_nombre_20"/><linearGradient id="Degradado_sin_nombre_20-6" x1="-267.96" y1="1251.78" x2="-238.26" y2="1251.78" gradientTransform="matrix(0.87, 0.5, 0, 1.15, 365.37, -1180.93)" xlink:href="#Degradado_sin_nombre_20"/><linearGradient id="Degradado_sin_nombre_20-7" x1="-313.65" y1="1206.22" x2="-238.26" y2="1206.22" gradientTransform="matrix(0.87, 0.5, 0, 1.15, 365.37, -1180.93)" xlink:href="#Degradado_sin_nombre_20"/><linearGradient id="Degradado_sin_nombre_179" x1="42.52" y1="121.57" x2="42.52" y2="57.93" gradientUnits="userSpaceOnUse"><stop offset="0" stop-color="#3b2f8c"/><stop offset="0.21" stop-color="#4f3c95"/><stop offset="0.46" stop-color="#62489d"/><stop offset="0.83" stop-color="#7d67ad"/><stop offset="1" stop-color="#8b77b6"/></linearGradient><linearGradient id="Degradado_sin_nombre_178-2" x1="48.17" y1="122.08" x2="48.17" y2="60.32" xlink:href="#Degradado_sin_nombre_178"/><linearGradient id="Degradado_sin_nombre_177" x1="62.56" y1="68.73" x2="28.45" y2="114.64" gradientUnits="userSpaceOnUse"><stop offset="0" stop-color="#4d3393"/><stop offset="0.48" stop-color="#583e98" stop-opacity="0.47"/><stop offset="0.83" stop-color="#5f459c" stop-opacity="0.13"/><stop offset="1" stop-color="#62489d" stop-opacity="0"/></linearGradient><linearGradient id="Degradado_sin_nombre_176" x1="-36.59" y1="-419.76" x2="-36.59" y2="-441.64" gradientTransform="matrix(0.87, -0.5, 0, 1.15, 90.55, 550.49)" gradientUnits="userSpaceOnUse"><stop offset="0" stop-color="#8a2990"/><stop offset="0.11" stop-color="#8d3092"/><stop offset="0.46" stop-color="#954399"/><stop offset="1" stop-color="#9f57a2"/></linearGradient><linearGradient id="Degradado_sin_nombre_175" x1="55.34" y1="92.61" x2="55.34" y2="59.09" gradientUnits="userSpaceOnUse"><stop offset="0" stop-color="#923995"/><stop offset="0.46" stop-color="#9b4c9d"/><stop offset="1" stop-color="#a55ea5"/></linearGradient><linearGradient id="Degradado_sin_nombre_174" x1="64.68" y1="68.32" x2="64.68" y2="59.09" gradientUnits="userSpaceOnUse"><stop offset="0" stop-color="#a455a1"/><stop offset="0.15" stop-color="#aa60a6"/><stop offset="0.46" stop-color="#b573b0"/><stop offset="1" stop-color="#c68cbe"/></linearGradient><linearGradient id="Degradado_sin_nombre_173" x1="-31.91" y1="-415.34" x2="-31.91" y2="-437.23" gradientTransform="matrix(0.87, -0.5, 0, 1.15, 90.55, 550.49)" gradientUnits="userSpaceOnUse"><stop offset="0" stop-color="#9b469a"/><stop offset="0.46" stop-color="#a458a2"/><stop offset="1" stop-color="#b06bac"/></linearGradient><linearGradient id="Degradado_sin_nombre_172-3" x1="158.31" y1="204.92" x2="158.31" y2="136.28" xlink:href="#Degradado_sin_nombre_172"/><linearGradient id="Degradado_sin_nombre_171-4" x1="157.74" y1="205.01" x2="157.74" y2="136.78" gradientTransform="matrix(1, 0, 0, 1, 0, 0)" xlink:href="#Degradado_sin_nombre_171"/><linearGradient id="Degradado_sin_nombre_168" x1="62.5" y1="218.05" x2="89.73" y2="218.05" gradientUnits="userSpaceOnUse"><stop offset="0" stop-color="#a354a1"/><stop offset="0.22" stop-color="#984198"/><stop offset="0.48" stop-color="#a558a3"/><stop offset="0.76" stop-color="#b06bac"/><stop offset="0.96" stop-color="#a458a2"/></linearGradient><linearGradient id="Degradado_sin_nombre_167" x1="1393.02" y1="883.05" x2="1372.85" y2="865.58" gradientTransform="matrix(-0.5, 0.87, -0.58, -1, 1272.39, -124.75)" gradientUnits="userSpaceOnUse"><stop offset="0" stop-color="#b06bac"/><stop offset="0.54" stop-color="#a458a2"/><stop offset="1" stop-color="#9b469a"/></linearGradient><linearGradient id="Degradado_sin_nombre_170" x1="99.65" y1="229.27" x2="126.88" y2="229.27" gradientUnits="userSpaceOnUse"><stop offset="0" stop-color="#6755a4"/><stop offset="0.22" stop-color="#51439b"/><stop offset="0.31" stop-color="#6252a3"/><stop offset="0.45" stop-color="#7563ac"/><stop offset="0.84" stop-color="#6550a1"/><stop offset="0.92" stop-color="#6854a3"/><stop offset="0.99" stop-color="#725fa9"/><stop offset="1" stop-color="#7461aa"/></linearGradient><linearGradient id="Degradado_sin_nombre_169" x1="115.01" y1="231.46" x2="115.01" y2="211.5" gradientTransform="translate(335.86 105.27) rotate(89.69)" gradientUnits="userSpaceOnUse"><stop offset="0" stop-color="#6d5aa6"/><stop offset="0.54" stop-color="#62489d"/><stop offset="1" stop-color="#553d98"/></linearGradient><linearGradient id="Degradado_sin_nombre_168-2" x1="107.42" y1="221.21" x2="120.87" y2="221.21" xlink:href="#Degradado_sin_nombre_168"/><linearGradient id="Degradado_sin_nombre_167-2" x1="1419.11" y1="868.5" x2="1409.15" y2="859.87" gradientTransform="matrix(-0.5, 0.87, -0.58, -1, 1319.08, -152.2)" xlink:href="#Degradado_sin_nombre_167"/><linearGradient id="Degradado_sin_nombre_178-4" x1="48.1" y1="124.55" x2="48.1" y2="62.8" xlink:href="#Degradado_sin_nombre_178"/></defs><g class="cls-1"><g id="Layer_1" data-name="Layer 1"><rect class="cls-2" width="200" height="250"/><path class="cls-3" d="M59.13,233.24l-2-1.17c-7.16-4.13-6.26-11.34,2-16.11l.63-.37c8.26-4.77,20.76-5.28,27.91-1.15l2,1.16c7.16,4.13,6.26,11.35-2,16.12l-.63.36C78.78,236.85,66.28,237.37,59.13,233.24Z"/><path class="cls-4" d="M96.91,242.13l-2-1.17c-7.15-4.13-6.26-11.34,2-16.11l.62-.37c8.27-4.77,20.76-5.29,27.92-1.15l2,1.16c7.15,4.13,6.25,11.35-2,16.12l-.63.36C116.56,245.74,104.07,246.26,96.91,242.13Z"/><path class="cls-5" d="M23.76,226.56l46.88-27.07c1.87-1.08,1.64-3-.53-4.23h0a8.14,8.14,0,0,0-7.33-.3L15.91,222c-1.88,1.09-1.65,3,.52,4.23h0A8.17,8.17,0,0,0,23.76,226.56Z"/><path class="cls-6" d="M21.89,226.56l46.87-27.07c1.88-1.08,1.65-3-.52-4.23h0a8.14,8.14,0,0,0-7.33-.3L14,222c-1.88,1.09-1.65,3,.52,4.23h0A8.17,8.17,0,0,0,21.89,226.56Z"/><path class="cls-7" d="M155.69,232.85,98.38,199.76c-2.29-1.32-2.2-3.3.21-4.41h0a10.42,10.42,0,0,1,8.52.38l57.31,33.09c2.29,1.33,2.2,3.3-.21,4.42h0A10.39,10.39,0,0,1,155.69,232.85Z"/><path class="cls-8" d="M153.25,229.36,95.94,196.27c-2.3-1.33-2.21-3.3.2-4.42h0a10.38,10.38,0,0,1,8.52.39L162,225.33c2.3,1.32,2.21,3.3-.2,4.41h0A10.42,10.42,0,0,1,153.25,229.36Z"/><path class="cls-9" d="M169.43,216.2l-43.32-25c-1.74-1-1.67-2.5.15-3.34h0a7.87,7.87,0,0,1,6.44.29l43.33,25c1.73,1,1.66,2.5-.16,3.34h0A7.87,7.87,0,0,1,169.43,216.2Z"/><path class="cls-10" d="M167.58,213.56l-43.32-25c-1.74-1-1.67-2.49.15-3.33h0a7.86,7.86,0,0,1,6.44.29l43.33,25c1.73,1,1.66,2.5-.16,3.34h0A7.87,7.87,0,0,1,167.58,213.56Z"/><ellipse class="cls-11" cx="53.56" cy="169.49" rx="39.33" ry="23.54" transform="translate(-121.81 140.52) rotate(-63.08)"/><path class="cls-12" d="M79.42,165.09q0-1.05,0-2.07c-.74-18.44-13.8-25.64-29.16-16.09-11.7,7.28-21.37,22.18-25,37,.18-18,11.72-39.41,26.51-48.61,15.37-9.56,28.43-2.36,29.17,16.08A49.77,49.77,0,0,1,79.42,165.09Z"/><path class="cls-13" d="M157.08,165a3.26,3.26,0,0,0-1.37-2.61L96.16,128a.87.87,0,0,0-.9-.06h0l-2.89,1.54h0a1.14,1.14,0,0,0-.56,1.15v57.76a3.27,3.27,0,0,0,1.36,2.6l59.55,34.38a.83.83,0,0,0,1,0h0l2.65-1.43a.69.69,0,0,0,.4-.22h0a1.39,1.39,0,0,0,.31-1Z"/><path class="cls-14" d="M93.17,191l59.55,34.38c.75.43,1.36,0,1.36-1V166.54a3.26,3.26,0,0,0-1.36-2.6L93.17,129.56c-.75-.44-1.36,0-1.36,1v57.76A3.27,3.27,0,0,0,93.17,191Z"/><path class="cls-15" d="M91.81,137.1v-6.51c0-1,.61-1.47,1.36-1l59.55,34.38a3.26,3.26,0,0,1,1.36,2.6v6.51Z"/><path class="cls-16" d="M142.79,171.79l7.67,4.43v9.16L142.79,181Zm-9.48,3.69,7.68,4.43v-9.15l-7.68-4.44ZM123.84,170l7.68,4.43v-9.15l-7.68-4.43Zm-9.47-5.47L122,169v-9.15l-7.67-4.43Zm-9.47-5.47,7.67,4.43v-9.15l-7.67-4.43Zm-9.47-5.47L103.1,158v-9.15l-7.67-4.43Zm47.36,38.79,7.67,4.43v-9.15l-7.67-4.43Zm-9.48-5.47,7.68,4.43V182.2l-7.68-4.43Zm-9.47-5.47,7.68,4.43v-9.15l-7.68-4.43ZM114.37,176l7.67,4.44v-9.16l-7.67-4.43Zm-9.47-5.46,7.67,4.43v-9.16l-7.67-4.43Zm-9.47-5.47,7.67,4.43v-9.16l-7.67-4.43Zm47.36,38.78,7.67,4.43v-9.15l-7.67-4.43Zm-9.48-5.46L141,202.8v-9.16l-7.68-4.43Zm-9.47-5.47,7.68,4.43v-9.16l-7.68-4.43Zm-9.47-5.47,7.67,4.43V182.7l-7.67-4.43ZM104.9,182l7.67,4.43v-9.15l-7.67-4.44Zm-9.47-5.47,7.67,4.43v-9.15l-7.67-4.43Zm47.36,38.79,7.67,4.43v-9.16l-7.67-4.43Zm-9.48-5.47,7.68,4.43v-9.16l-7.68-4.43Zm-9.47-5.47,7.68,4.43v-9.15l-7.68-4.43Zm-9.47-5.47L122,203.3v-9.15l-7.67-4.43Zm-9.47-5.47,7.67,4.43v-9.15l-7.67-4.43Zm-9.47-5.47,7.67,4.43v-9.15l-7.67-4.43Z"/><path class="cls-17" d="M49.55,130.15c-16.93,10.11-29.72,34.6-28.56,54.7S36.81,213,53.74,202.93s29.72-34.6,28.56-54.7S66.48,120,49.55,130.15Zm4,66.76c-14.38,8.6-26.84,1.72-27.83-15.36S35.6,143.67,50,135.08s26.84-1.71,27.83,15.36S67.93,188.32,53.54,196.91Z"/><path class="cls-18" d="M52.21,132.44c-16.53,9.87-29,33.78-27.88,53.4s15.44,27.52,32,17.65,29-33.78,27.89-53.4S68.74,122.57,52.21,132.44Zm3.69,66.95C41.51,208,29.05,201.11,28.07,184S38,146.15,52.33,137.56s26.85-1.71,27.83,15.36S70.28,190.8,55.9,199.39Z"/><path class="cls-19" d="M56.16,172.89l-.23.13c-.81.49-1.52,0-1.59-1.14l-1-18.13a3.43,3.43,0,0,1,1.35-2.9l.23-.13c.81-.49,1.52,0,1.58,1.14l1,18.13A3.43,3.43,0,0,1,56.16,172.89Z"/><path class="cls-19" d="M54.76,170.43h0c.58-1.1,1.58-1.7,2.24-1.33l11.72,6.47c.66.36.73,1.55.15,2.65h0c-.57,1.1-1.57,1.7-2.23,1.34l-11.73-6.47C54.25,172.72,54.19,171.53,54.76,170.43Z"/><g class="cls-20"><path class="cls-19" d="M51.73,195.12h0l-.25.13c-.11.05-.19,0-.18-.14a.41.41,0,0,1,.21-.32l.25-.13c.11,0,.19,0,.18.14A.41.41,0,0,1,51.73,195.12ZM58,191.05c-.09,0-.17,0-.19-.07a.42.42,0,0,1,.15-.35l.25-.2c.1-.08.2-.07.23,0a.42.42,0,0,1-.15.35L58,191Zm-12.67,6.26-.07,0-.24,0c-.1,0-.15-.08-.11-.22a.34.34,0,0,1,.24-.27l.24,0c.1,0,.15.08.12.21A.51.51,0,0,1,45.33,197.31ZM64.18,185c-.07,0-.14,0-.17,0a.35.35,0,0,1,.08-.35,2.75,2.75,0,0,0,.22-.26c.1-.11.22-.13.26,0a.31.31,0,0,1-.08.34l-.22.27ZM39.52,197.21a.15.15,0,0,1-.11,0l-.21,0c-.09,0-.1-.15,0-.28s.18-.23.27-.21l.2.05c.09,0,.11.15,0,.28A.51.51,0,0,1,39.52,197.21Zm30-19.54a.12.12,0,0,1-.14,0c-.07-.05-.07-.19,0-.32l.19-.3c.07-.13.2-.19.27-.15s.07.19,0,.32a3.21,3.21,0,0,1-.19.31A.27.27,0,0,1,69.55,177.67ZM34.74,194.85c-.06,0-.11,0-.15,0l-.16-.13c-.07-.06,0-.21,0-.33s.21-.18.27-.12l.16.13c.07.06,0,.2,0,.33A.46.46,0,0,1,34.74,194.85Zm39-25.36a.19.19,0,0,1-.1,0c-.09,0-.12-.14-.06-.27s.09-.22.13-.32.17-.24.27-.23.12.13.06.27-.09.21-.13.32A.42.42,0,0,1,73.73,169.49ZM31.34,190.41c-.08.05-.15,0-.18,0a1.36,1.36,0,0,1-.1-.21.37.37,0,0,1,.1-.35c.1-.1.21-.11.25,0l.1.2a.34.34,0,0,1-.1.35A.19.19,0,0,1,31.34,190.41ZM76.4,161.1l-.05,0c-.1,0-.16-.07-.13-.2l.06-.32a.42.42,0,0,1,.24-.29c.11,0,.17.06.14.2a3,3,0,0,0-.07.32A.43.43,0,0,1,76.4,161.1ZM29.57,184.22c-.1.05-.18,0-.19-.08s0-.18,0-.28a.45.45,0,0,1,.17-.34c.11-.08.2-.05.22.07l0,.26a.43.43,0,0,1-.17.35S29.58,184.21,29.57,184.22Zm47.78-31.09h0c-.11.06-.19,0-.19-.12v-.35a.44.44,0,0,1,.19-.33c.11-.06.2,0,.2.11v.35A.41.41,0,0,1,77.35,153.13ZM29.56,176.72h0c-.11.05-.18,0-.17-.15l0-.31a.43.43,0,0,1,.22-.31c.11-.05.18,0,.17.15s0,.21,0,.31A.39.39,0,0,1,29.56,176.72Zm47-30.61c-.08,0-.16,0-.18-.05s0-.16-.07-.24a.39.39,0,0,1,.13-.35c.11-.09.21-.09.24,0a1.82,1.82,0,0,1,.07.25.39.39,0,0,1-.14.35ZM31.31,168.48a.11.11,0,0,1-.07,0c-.1,0-.15-.1-.1-.24s.06-.21.1-.32.16-.26.25-.26.15.1.1.23-.07.22-.1.33A.39.39,0,0,1,31.31,168.48ZM74,140.69c-.07,0-.13,0-.17,0l-.13-.17a.33.33,0,0,1,.07-.34c.09-.12.21-.15.26-.08l.13.17a.32.32,0,0,1-.06.35A.41.41,0,0,1,74,140.69ZM34.71,160.11a.19.19,0,0,1-.12,0c-.09,0-.1-.16,0-.3l.16-.31c.07-.14.19-.22.27-.19s.09.16,0,.3-.11.21-.16.31A.43.43,0,0,1,34.71,160.11Zm35.17-22.92a.12.12,0,0,1-.13,0l-.18-.09c-.08,0-.08-.17,0-.31s.19-.2.27-.16l.19.09c.08,0,.08.18,0,.31A.29.29,0,0,1,69.88,137.19Zm-30.4,15a.15.15,0,0,1-.16,0,.3.3,0,0,1,0-.34l.2-.29c.09-.12.21-.16.27-.1a.3.3,0,0,1-.05.34l-.2.28A.29.29,0,0,1,39.48,152.23Zm25.1-16.36a.1.1,0,0,1-.09,0h-.22c-.1,0-.14-.11-.09-.25s.17-.25.26-.25h.23c.09,0,.13.11.08.25A.39.39,0,0,1,64.58,135.87Zm-19.31,9.55c-.08,0-.15,0-.18,0a.36.36,0,0,1,.12-.35l.24-.24c.1-.1.21-.1.24,0a.37.37,0,0,1-.12.35l-.23.23Zm13.17-8.58,0,0-.25.08c-.1,0-.17,0-.15-.17a.42.42,0,0,1,.23-.31l.25-.08c.1,0,.17,0,.15.18A.43.43,0,0,1,58.44,136.84Zm-6.77,3.35c-.1.06-.19,0-.19-.09a.41.41,0,0,1,.18-.34l.25-.17c.11-.07.2,0,.2.09a.41.41,0,0,1-.18.34l-.25.17Z"/></g><path class="cls-21" d="M163,87.64,90.77,45.93a1,1,0,0,0-1.12,0h0l-1.4,1.16L89,49.64l.19-.29V112.1a3.74,3.74,0,0,0,1.56,3l71.67,41.37v1.69l1.43-1.2h0c.42-.13.7-.61.7-1.33v-65A3.71,3.71,0,0,0,163,87.64Z"/><path class="cls-22" d="M161.43,158.05,89.19,116.34a3.74,3.74,0,0,1-1.56-3v-65c0-1.15.7-1.68,1.56-1.18L161.43,88.9a3.72,3.72,0,0,1,1.56,3v65C163,158,162.29,158.54,161.43,158.05Z"/><ellipse class="cls-23" cx="109.81" cy="93.67" rx="12.43" ry="21.53" transform="translate(-32.26 68.23) rotate(-30.31)"/><path class="cls-24" d="M124,108.47c-2.28,5.07-7.75,6.41-14.14,2.72-8.43-4.87-15.26-16.66-15.26-26.33,0-5.35,2.08-8.94,5.38-10.25"/><path class="cls-25" d="M157.69,120.17l-23-13.3a3.21,3.21,0,0,1-1.34-2.56V84.05c0-1,.6-1.44,1.34-1l23,13.3A3.21,3.21,0,0,1,159,98.9v20.26C159,120.15,158.43,120.6,157.69,120.17Z"/><path class="cls-26" d="M158.68,130l-25-14.44a.83.83,0,0,1-.36-.67v-6.39c0-.26.16-.38.36-.27l25,14.45a.82.82,0,0,1,.35.67v6.39C159,130,158.88,130.08,158.68,130Z"/><path class="cls-27" d="M158.68,139.4l-25-14.44a.83.83,0,0,1-.36-.67V117.9c0-.26.16-.38.36-.27l25,14.44a.85.85,0,0,1,.35.68v6.39C159,139.39,158.88,139.51,158.68,139.4Z"/><path class="cls-28" d="M158,148.42l-23.61-13.63a2.53,2.53,0,0,1-1.06-2v-4.51c0-.78.48-1.14,1.06-.8L158,141.1a2.52,2.52,0,0,1,1.05,2v4.51C159,148.4,158.56,148.76,158,148.42Z"/><polygon class="cls-29" points="156.81 124.46 135.15 111.95 135.15 110.39 156.81 122.89 156.81 124.46"/><polygon class="cls-29" points="156.81 127.22 135.15 114.71 135.15 113.14 156.81 125.65 156.81 127.22"/><polygon class="cls-15" points="145.31 117.81 135.15 111.95 135.15 110.39 145.31 116.25 145.31 117.81"/><polygon class="cls-15" points="151.94 124.4 135.15 114.71 135.15 113.14 151.94 122.83 151.94 124.4"/><polygon class="cls-29" points="136.95 122.67 135.47 121.81 135.47 120.12 136.95 120.97 136.95 122.67"/><polygon class="cls-29" points="139.03 123.87 137.55 123.01 137.55 121.31 139.03 122.17 139.03 123.87"/><polygon class="cls-29" points="141.11 125.07 139.63 124.21 139.63 122.52 141.11 123.37 141.11 125.07"/><polygon class="cls-29" points="143.19 126.27 141.71 125.41 141.71 123.72 143.19 124.57 143.19 126.27"/><polygon class="cls-29" points="145.26 127.47 143.79 126.61 143.79 124.92 145.26 125.77 145.26 127.47"/><polygon class="cls-29" points="147.34 128.67 145.86 127.81 145.86 126.11 147.34 126.97 147.34 128.67"/><polygon class="cls-15" points="136.95 125.05 135.47 124.2 135.47 122.5 136.95 123.35 136.95 125.05"/><polygon class="cls-15" points="139.03 126.25 137.55 125.4 137.55 123.7 139.03 124.55 139.03 126.25"/><polygon class="cls-15" points="141.11 127.45 139.63 126.6 139.63 124.9 141.11 125.75 141.11 127.45"/><polygon class="cls-29" points="143.19 128.65 141.71 127.8 141.71 126.1 143.19 126.95 143.19 128.65"/><polygon class="cls-29" points="145.26 129.85 143.79 129 143.79 127.3 145.26 128.15 145.26 129.85"/><polygon class="cls-29" points="147.34 131.05 145.86 130.2 145.86 128.5 147.34 129.35 147.34 131.05"/><text class="cls-30" transform="matrix(0.87, 0.5, 0, 1, 98.55, 94.23)">0%</text><path class="cls-31" d="M158.38,93.26l-64-36.94a1.57,1.57,0,0,1-.65-1.25h0c0-.48.29-.7.65-.49l64,36.94a1.54,1.54,0,0,1,.65,1.24h0C159,93.25,158.74,93.47,158.38,93.26Z"/><path class="cls-32" d="M42.52,88.82,49.63,67.3l.69,1,8-7.87-5.64-2.39c-3.12-.46-6.61.37-10.16,2.42C30.86,67.21,21.26,85.55,21.26,101.1c0,9.07,3.27,15.32,8.31,17.61h0l.05,0,.61.26,6.22,2.58s1.61-.72,1.35-.89-2-.54-4-1a16.6,16.6,0,0,0,8.72-2.51c11.66-6.73,21.26-25.07,21.26-40.62Z"/><path class="cls-33" d="M69.43,78.94c0,15.55-9.6,33.89-21.26,40.62S26.91,119,26.91,103.49,36.5,69.6,48.17,62.87a18.8,18.8,0,0,1,6-2.32,12.52,12.52,0,0,1,4.13-.1L48.17,91.21Z"/><path class="cls-34" d="M69.43,78.94,52.28,92.61l-9,2.23L54.19,60.55a12.52,12.52,0,0,1,4.13-.1L48.17,91.21Z"/><path class="cls-35" d="M48.23,89.86,58.4,59.09c6.83,1,11.09,8.13,11.09,18.49V78Z"/><polygon class="cls-36" points="58.4 59.09 62.45 61.85 52.28 92.61 48.23 89.86 58.4 59.09"/><path class="cls-37" d="M58.4,59.09l4.05,2.76L71,68.32A18.65,18.65,0,0,0,58.4,59.09Z"/><path class="cls-38" d="M52.28,92.61,62.45,61.85c6.83,1,11.09,8.12,11.09,18.49v.37Z"/><path class="cls-39" d="M169.68,149.22l-22.19-12.81a.65.65,0,0,0-.65-.07h0l-.91.54.56.35v52.38a2.45,2.45,0,0,0,1,2l22,12.72,0,.62.79-.46h0a.93.93,0,0,0,.37-.84V151.18A2.43,2.43,0,0,0,169.68,149.22Z"/><path class="cls-40" d="M169.86,151.67v52.44c0,.76-.46,1.11-1,.78l-13.24-7.65-8.94-5.16a2.46,2.46,0,0,1-1-2V137.68c0-.76.46-1.11,1-.78l22.18,12.81A2.46,2.46,0,0,1,169.86,151.67Z"/><path class="cls-41" d="M163.83,200.22l4.1,2.37c.21.11.37,0,.37-.28v-50.7a.85.85,0,0,0-.37-.69l-4.1-2.37c-.2-.12-.36,0-.36.28v50.69A.88.88,0,0,0,163.83,200.22Z"/><path class="cls-41" d="M158.33,197l4.1,2.37c.2.11.37,0,.37-.28V148.44a.89.89,0,0,0-.37-.7l-4.1-2.37c-.2-.11-.36,0-.36.28v50.69A.88.88,0,0,0,158.33,197Z"/><path class="cls-41" d="M152.83,193.86l4.1,2.37c.2.12.36,0,.36-.27v-50.7a.88.88,0,0,0-.36-.7l-4.1-2.36c-.2-.12-.37,0-.37.27v50.7A.86.86,0,0,0,152.83,193.86Z"/><path class="cls-41" d="M147.32,190.69l4.11,2.36c.2.12.36,0,.36-.27v-50.7a.85.85,0,0,0-.36-.69L147.32,139c-.2-.12-.36,0-.36.27V190A.88.88,0,0,0,147.32,190.69Z"/><path class="cls-15" d="M163.83,200.22l4.1,2.37c.21.11.37,0,.37-.28V177l-4.83-2.79v25.32A.88.88,0,0,0,163.83,200.22Z"/><path class="cls-42" d="M158.33,197l4.1,2.37c.2.11.37,0,.37-.28v-39.2L158,157.14v39.2A.88.88,0,0,0,158.33,197Z"/><path class="cls-15" d="M152.83,193.86l4.1,2.37c.2.12.36,0,.36-.27V176.11l-4.83-2.79v19.85A.86.86,0,0,0,152.83,193.86Z"/><path class="cls-42" d="M147.32,190.69l4.11,2.36c.2.12.36,0,.36-.27V148.71L147,145.92V190A.88.88,0,0,0,147.32,190.69Z"/><path class="cls-43" d="M95.14,220.55h0v-15H60.57v15h0c0,2.54,1.73,5.08,5.1,7,6.77,3.91,17.71,3.93,24.44,0C93.5,225.67,95.17,223.11,95.14,220.55Z"/><ellipse class="cls-44" cx="77.86" cy="205.04" rx="9.98" ry="17.28" transform="translate(-127.6 281.79) rotate(-89.69)"/><path class="cls-45" d="M132.29,229.27h0v-7.84l-4.71,1-.39-.23c-6.77-3.91-17.71-3.93-24.44-.05l-.46.28L97.73,221v8.12c-.06,2.61,1.64,5.23,5.1,7.23,6.77,3.91,17.71,3.93,24.43,0C130.64,234.4,132.31,231.83,132.29,229.27Z"/><ellipse class="cls-46" cx="115.01" cy="221.48" rx="9.98" ry="17.28" transform="translate(-107.09 335.28) rotate(-89.69)"/><path class="cls-47" d="M123.55,222.45h0v-7.4H106.47v7.4h0c0,1.25.86,2.51,2.52,3.47a13.34,13.34,0,0,0,12.07,0C122.73,225,123.56,223.71,123.55,222.45Z"/><ellipse class="cls-48" cx="115.01" cy="214.78" rx="4.93" ry="8.54" transform="translate(-100.4 328.63) rotate(-89.69)"/><ellipse class="cls-11" cx="53.56" cy="169.49" rx="39.33" ry="23.54" transform="translate(-121.81 140.52) rotate(-63.08)"/><path class="cls-12" d="M79.42,165.09q0-1.05,0-2.07c-.74-18.44-13.8-25.64-29.16-16.09-11.7,7.28-21.37,22.18-25,37,.18-18,11.72-39.41,26.51-48.61,15.37-9.56,28.43-2.36,29.17,16.08A49.77,49.77,0,0,1,79.42,165.09Z"/><path class="cls-13" d="M157.08,165a3.26,3.26,0,0,0-1.37-2.61L96.16,128a.87.87,0,0,0-.9-.06h0l-2.89,1.54h0a1.14,1.14,0,0,0-.56,1.15v57.76a3.27,3.27,0,0,0,1.36,2.6l59.55,34.38a.83.83,0,0,0,1,0h0l2.65-1.43a.69.69,0,0,0,.4-.22h0a1.39,1.39,0,0,0,.31-1Z"/><path class="cls-14" d="M93.17,191l59.55,34.38c.75.43,1.36,0,1.36-1V166.54a3.26,3.26,0,0,0-1.36-2.6L93.17,129.56c-.75-.44-1.36,0-1.36,1v57.76A3.27,3.27,0,0,0,93.17,191Z"/><path class="cls-15" d="M91.81,137.1v-6.51c0-1,.61-1.47,1.36-1l59.55,34.38a3.26,3.26,0,0,1,1.36,2.6v6.51Z"/><path class="cls-16" d="M142.79,171.79l7.67,4.43v9.16L142.79,181Zm-9.48,3.69,7.68,4.43v-9.15l-7.68-4.44ZM123.84,170l7.68,4.43v-9.15l-7.68-4.43Zm-9.47-5.47L122,169v-9.15l-7.67-4.43Zm-9.47-5.47,7.67,4.43v-9.15l-7.67-4.43Zm-9.47-5.47L103.1,158v-9.15l-7.67-4.43Zm47.36,38.79,7.67,4.43v-9.15l-7.67-4.43Zm-9.48-5.47,7.68,4.43V182.2l-7.68-4.43Zm-9.47-5.47,7.68,4.43v-9.15l-7.68-4.43ZM114.37,176l7.67,4.44v-9.16l-7.67-4.43Zm-9.47-5.46,7.67,4.43v-9.16l-7.67-4.43Zm-9.47-5.47,7.67,4.43v-9.16l-7.67-4.43Zm47.36,38.78,7.67,4.43v-9.15l-7.67-4.43Zm-9.48-5.46L141,202.8v-9.16l-7.68-4.43Zm-9.47-5.47,7.68,4.43v-9.16l-7.68-4.43Zm-9.47-5.47,7.67,4.43V182.7l-7.67-4.43ZM104.9,182l7.67,4.43v-9.15l-7.67-4.44Zm-9.47-5.47,7.67,4.43v-9.15l-7.67-4.43Zm47.36,38.79,7.67,4.43v-9.16l-7.67-4.43Zm-9.48-5.47,7.68,4.43v-9.16l-7.68-4.43Zm-9.47-5.47,7.68,4.43v-9.15l-7.68-4.43Zm-9.47-5.47L122,203.3v-9.15l-7.67-4.43Zm-9.47-5.47,7.67,4.43v-9.15l-7.67-4.43Zm-9.47-5.47,7.67,4.43v-9.15l-7.67-4.43Z"/><path class="cls-17" d="M49.55,130.15c-16.93,10.11-29.72,34.6-28.56,54.7S36.81,213,53.74,202.93s29.72-34.6,28.56-54.7S66.48,120,49.55,130.15Zm4,66.76c-14.38,8.6-26.84,1.72-27.83-15.36S35.6,143.67,50,135.08s26.84-1.71,27.83,15.36S67.93,188.32,53.54,196.91Z"/><path class="cls-18" d="M52.21,132.44c-16.53,9.87-29,33.78-27.88,53.4s15.44,27.52,32,17.65,29-33.78,27.89-53.4S68.74,122.57,52.21,132.44Zm3.69,66.95C41.51,208,29.05,201.11,28.07,184S38,146.15,52.33,137.56s26.85-1.71,27.83,15.36S70.28,190.8,55.9,199.39Z"/><path class="cls-19" d="M56.16,172.89l-.23.13c-.81.49-1.52,0-1.59-1.14l-1-18.13a3.43,3.43,0,0,1,1.35-2.9l.23-.13c.81-.49,1.52,0,1.58,1.14l1,18.13A3.43,3.43,0,0,1,56.16,172.89Z"/><path class="cls-19" d="M54.76,170.43h0c.58-1.1,1.58-1.7,2.24-1.33l11.72,6.47c.66.36.73,1.55.15,2.65h0c-.57,1.1-1.57,1.7-2.23,1.34l-11.73-6.47C54.25,172.72,54.19,171.53,54.76,170.43Z"/><g class="cls-20"><path class="cls-19" d="M51.73,195.12h0l-.25.13c-.11.05-.19,0-.18-.14a.41.41,0,0,1,.21-.32l.25-.13c.11,0,.19,0,.18.14A.41.41,0,0,1,51.73,195.12ZM58,191.05c-.09,0-.17,0-.19-.07a.42.42,0,0,1,.15-.35l.25-.2c.1-.08.2-.07.23,0a.42.42,0,0,1-.15.35L58,191Zm-12.67,6.26-.07,0-.24,0c-.1,0-.15-.08-.11-.22a.34.34,0,0,1,.24-.27l.24,0c.1,0,.15.08.12.21A.51.51,0,0,1,45.33,197.31ZM64.18,185c-.07,0-.14,0-.17,0a.35.35,0,0,1,.08-.35,2.75,2.75,0,0,0,.22-.26c.1-.11.22-.13.26,0a.31.31,0,0,1-.08.34l-.22.27ZM39.52,197.21a.15.15,0,0,1-.11,0l-.21,0c-.09,0-.1-.15,0-.28s.18-.23.27-.21l.2.05c.09,0,.11.15,0,.28A.51.51,0,0,1,39.52,197.21Zm30-19.54a.12.12,0,0,1-.14,0c-.07-.05-.07-.19,0-.32l.19-.3c.07-.13.2-.19.27-.15s.07.19,0,.32a3.21,3.21,0,0,1-.19.31A.27.27,0,0,1,69.55,177.67ZM34.74,194.85c-.06,0-.11,0-.15,0l-.16-.13c-.07-.06,0-.21,0-.33s.21-.18.27-.12l.16.13c.07.06,0,.2,0,.33A.46.46,0,0,1,34.74,194.85Zm39-25.36a.19.19,0,0,1-.1,0c-.09,0-.12-.14-.06-.27s.09-.22.13-.32.17-.24.27-.23.12.13.06.27-.09.21-.13.32A.42.42,0,0,1,73.73,169.49ZM31.34,190.41c-.08.05-.15,0-.18,0a1.36,1.36,0,0,1-.1-.21.37.37,0,0,1,.1-.35c.1-.1.21-.11.25,0l.1.2a.34.34,0,0,1-.1.35A.19.19,0,0,1,31.34,190.41ZM76.4,161.1l-.05,0c-.1,0-.16-.07-.13-.2l.06-.32a.42.42,0,0,1,.24-.29c.11,0,.17.06.14.2a3,3,0,0,0-.07.32A.43.43,0,0,1,76.4,161.1ZM29.57,184.22c-.1.05-.18,0-.19-.08s0-.18,0-.28a.45.45,0,0,1,.17-.34c.11-.08.2-.05.22.07l0,.26a.43.43,0,0,1-.17.35S29.58,184.21,29.57,184.22Zm47.78-31.09h0c-.11.06-.19,0-.19-.12v-.35a.44.44,0,0,1,.19-.33c.11-.06.2,0,.2.11v.35A.41.41,0,0,1,77.35,153.13ZM29.56,176.72h0c-.11.05-.18,0-.17-.15l0-.31a.43.43,0,0,1,.22-.31c.11-.05.18,0,.17.15s0,.21,0,.31A.39.39,0,0,1,29.56,176.72Zm47-30.61c-.08,0-.16,0-.18-.05s0-.16-.07-.24a.39.39,0,0,1,.13-.35c.11-.09.21-.09.24,0a1.82,1.82,0,0,1,.07.25.39.39,0,0,1-.14.35ZM31.31,168.48a.11.11,0,0,1-.07,0c-.1,0-.15-.1-.1-.24s.06-.21.1-.32.16-.26.25-.26.15.1.1.23-.07.22-.1.33A.39.39,0,0,1,31.31,168.48ZM74,140.69c-.07,0-.13,0-.17,0l-.13-.17a.33.33,0,0,1,.07-.34c.09-.12.21-.15.26-.08l.13.17a.32.32,0,0,1-.06.35A.41.41,0,0,1,74,140.69ZM34.71,160.11a.19.19,0,0,1-.12,0c-.09,0-.1-.16,0-.3l.16-.31c.07-.14.19-.22.27-.19s.09.16,0,.3-.11.21-.16.31A.43.43,0,0,1,34.71,160.11Zm35.17-22.92a.12.12,0,0,1-.13,0l-.18-.09c-.08,0-.08-.17,0-.31s.19-.2.27-.16l.19.09c.08,0,.08.18,0,.31A.29.29,0,0,1,69.88,137.19Zm-30.4,15a.15.15,0,0,1-.16,0,.3.3,0,0,1,0-.34l.2-.29c.09-.12.21-.16.27-.1a.3.3,0,0,1-.05.34l-.2.28A.29.29,0,0,1,39.48,152.23Zm25.1-16.36a.1.1,0,0,1-.09,0h-.22c-.1,0-.14-.11-.09-.25s.17-.25.26-.25h.23c.09,0,.13.11.08.25A.39.39,0,0,1,64.58,135.87Zm-19.31,9.55c-.08,0-.15,0-.18,0a.36.36,0,0,1,.12-.35l.24-.24c.1-.1.21-.1.24,0a.37.37,0,0,1-.12.35l-.23.23Zm13.17-8.58,0,0-.25.08c-.1,0-.17,0-.15-.17a.42.42,0,0,1,.23-.31l.25-.08c.1,0,.17,0,.15.18A.43.43,0,0,1,58.44,136.84Zm-6.77,3.35c-.1.06-.19,0-.19-.09a.41.41,0,0,1,.18-.34l.25-.17c.11-.07.2,0,.2.09a.41.41,0,0,1-.18.34l-.25.17Z"/></g><path class="cls-21" d="M163,87.64,90.77,45.93a1,1,0,0,0-1.12,0h0l-1.4,1.16L89,49.64l.19-.29V112.1a3.74,3.74,0,0,0,1.56,3l71.67,41.37v1.69l1.43-1.2h0c.42-.13.7-.61.7-1.33v-65A3.71,3.71,0,0,0,163,87.64Z"/><path class="cls-22" d="M161.43,158.05,89.19,116.34a3.74,3.74,0,0,1-1.56-3v-65c0-1.15.7-1.68,1.56-1.18L161.43,88.9a3.72,3.72,0,0,1,1.56,3v65C163,158,162.29,158.54,161.43,158.05Z"/><ellipse class="cls-23" cx="109.81" cy="93.67" rx="12.43" ry="21.53" transform="translate(-32.26 68.23) rotate(-30.31)"/><path class="cls-24" d="M124,108.47c-2.28,5.07-7.75,6.41-14.14,2.72-8.43-4.87-15.26-16.66-15.26-26.33,0-5.35,2.08-8.94,5.38-10.25"/><path class="cls-25" d="M157.69,120.17l-23-13.3a3.21,3.21,0,0,1-1.34-2.56V84.05c0-1,.6-1.44,1.34-1l23,13.3A3.21,3.21,0,0,1,159,98.9v20.26C159,120.15,158.43,120.6,157.69,120.17Z"/><path class="cls-26" d="M158.68,130l-25-14.44a.83.83,0,0,1-.36-.67v-6.39c0-.26.16-.38.36-.27l25,14.45a.82.82,0,0,1,.35.67v6.39C159,130,158.88,130.08,158.68,130Z"/><path class="cls-27" d="M158.68,139.4l-25-14.44a.83.83,0,0,1-.36-.67V117.9c0-.26.16-.38.36-.27l25,14.44a.85.85,0,0,1,.35.68v6.39C159,139.39,158.88,139.51,158.68,139.4Z"/><path class="cls-28" d="M158,148.42l-23.61-13.63a2.53,2.53,0,0,1-1.06-2v-4.51c0-.78.48-1.14,1.06-.8L158,141.1a2.52,2.52,0,0,1,1.05,2v4.51C159,148.4,158.56,148.76,158,148.42Z"/><polygon class="cls-29" points="156.81 124.46 135.15 111.95 135.15 110.39 156.81 122.89 156.81 124.46"/><polygon class="cls-29" points="156.81 127.22 135.15 114.71 135.15 113.14 156.81 125.65 156.81 127.22"/><polygon class="cls-15" points="145.31 117.81 135.15 111.95 135.15 110.39 145.31 116.25 145.31 117.81"/><polygon class="cls-15" points="151.94 124.4 135.15 114.71 135.15 113.14 151.94 122.83 151.94 124.4"/><polygon class="cls-29" points="136.95 122.67 135.47 121.81 135.47 120.12 136.95 120.97 136.95 122.67"/><polygon class="cls-29" points="139.03 123.87 137.55 123.01 137.55 121.31 139.03 122.17 139.03 123.87"/><polygon class="cls-29" points="141.11 125.07 139.63 124.21 139.63 122.52 141.11 123.37 141.11 125.07"/><polygon class="cls-29" points="143.19 126.27 141.71 125.41 141.71 123.72 143.19 124.57 143.19 126.27"/><polygon class="cls-29" points="145.26 127.47 143.79 126.61 143.79 124.92 145.26 125.77 145.26 127.47"/><polygon class="cls-29" points="147.34 128.67 145.86 127.81 145.86 126.11 147.34 126.97 147.34 128.67"/><polygon class="cls-15" points="136.95 125.05 135.47 124.2 135.47 122.5 136.95 123.35 136.95 125.05"/><polygon class="cls-15" points="139.03 126.25 137.55 125.4 137.55 123.7 139.03 124.55 139.03 126.25"/><polygon class="cls-15" points="141.11 127.45 139.63 126.6 139.63 124.9 141.11 125.75 141.11 127.45"/><polygon class="cls-29" points="143.19 128.65 141.71 127.8 141.71 126.1 143.19 126.95 143.19 128.65"/><polygon class="cls-29" points="145.26 129.85 143.79 129 143.79 127.3 145.26 128.15 145.26 129.85"/><polygon class="cls-29" points="147.34 131.05 145.86 130.2 145.86 128.5 147.34 129.35 147.34 131.05"/><text class="cls-30" transform="matrix(0.87, 0.5, 0, 1, 98.55, 94.23)">0%</text><path class="cls-31" d="M158.38,93.26l-64-36.94a1.57,1.57,0,0,1-.65-1.25h0c0-.48.29-.7.65-.49l64,36.94a1.54,1.54,0,0,1,.65,1.24h0C159,93.25,158.74,93.47,158.38,93.26Z"/><path class="cls-32" d="M42.52,88.82,49.63,67.3l.69,1,8-7.87-5.64-2.39c-3.12-.46-6.61.37-10.16,2.42C30.86,67.21,21.26,85.55,21.26,101.1c0,9.07,3.27,15.32,8.31,17.61h0l.05,0,.61.26,6.22,2.58s1.61-.72,1.35-.89-2-.54-4-1a16.6,16.6,0,0,0,8.72-2.51c11.66-6.73,21.26-25.07,21.26-40.62Z"/><path class="cls-49" d="M69.36,81.41C69.36,97,59.77,115.3,48.1,122S26.85,121.51,26.85,106,36.44,72.08,48.1,65.34a18.9,18.9,0,0,1,6-2.31,12.53,12.53,0,0,1,4.13-.11L48.1,93.69Z"/><path class="cls-34" d="M69.43,78.94,52.28,92.61l-9,2.23L54.19,60.55a12.52,12.52,0,0,1,4.13-.1L48.17,91.21Z"/><path class="cls-35" d="M48.23,89.86,58.4,59.09c6.83,1,11.09,8.13,11.09,18.49V78Z"/><polygon class="cls-36" points="58.4 59.09 62.45 61.85 52.28 92.61 48.23 89.86 58.4 59.09"/><path class="cls-37" d="M58.4,59.09l4.05,2.76L71,68.32A18.65,18.65,0,0,0,58.4,59.09Z"/><path class="cls-38" d="M52.28,92.61,62.45,61.85c6.83,1,11.09,8.12,11.09,18.49v.37Z"/><path class="cls-39" d="M169.68,149.22l-22.19-12.81a.65.65,0,0,0-.65-.07h0l-.91.54.56.35v52.38a2.45,2.45,0,0,0,1,2l22,12.72,0,.62.79-.46h0a.93.93,0,0,0,.37-.84V151.18A2.43,2.43,0,0,0,169.68,149.22Z"/><path class="cls-40" d="M169.86,151.67v52.44c0,.76-.46,1.11-1,.78l-13.24-7.65-8.94-5.16a2.46,2.46,0,0,1-1-2V137.68c0-.76.46-1.11,1-.78l22.18,12.81A2.46,2.46,0,0,1,169.86,151.67Z"/><path class="cls-41" d="M163.83,200.22l4.1,2.37c.21.11.37,0,.37-.28v-50.7a.85.85,0,0,0-.37-.69l-4.1-2.37c-.2-.12-.36,0-.36.28v50.69A.88.88,0,0,0,163.83,200.22Z"/><path class="cls-41" d="M158.33,197l4.1,2.37c.2.11.37,0,.37-.28V148.44a.89.89,0,0,0-.37-.7l-4.1-2.37c-.2-.11-.36,0-.36.28v50.69A.88.88,0,0,0,158.33,197Z"/><path class="cls-41" d="M152.83,193.86l4.1,2.37c.2.12.36,0,.36-.27v-50.7a.88.88,0,0,0-.36-.7l-4.1-2.36c-.2-.12-.37,0-.37.27v50.7A.86.86,0,0,0,152.83,193.86Z"/><path class="cls-41" d="M147.32,190.69l4.11,2.36c.2.12.36,0,.36-.27v-50.7a.85.85,0,0,0-.36-.69L147.32,139c-.2-.12-.36,0-.36.27V190A.88.88,0,0,0,147.32,190.69Z"/><path class="cls-15" d="M163.83,200.22l4.1,2.37c.21.11.37,0,.37-.28V177l-4.83-2.79v25.32A.88.88,0,0,0,163.83,200.22Z"/><path class="cls-42" d="M158.33,197l4.1,2.37c.2.11.37,0,.37-.28v-39.2L158,157.14v39.2A.88.88,0,0,0,158.33,197Z"/><path class="cls-15" d="M152.83,193.86l4.1,2.37c.2.12.36,0,.36-.27V176.11l-4.83-2.79v19.85A.86.86,0,0,0,152.83,193.86Z"/><path class="cls-42" d="M147.32,190.69l4.11,2.36c.2.12.36,0,.36-.27V148.71L147,145.92V190A.88.88,0,0,0,147.32,190.69Z"/><path class="cls-43" d="M95.14,220.55h0v-15H60.57v15h0c0,2.54,1.73,5.08,5.1,7,6.77,3.91,17.71,3.93,24.44,0C93.5,225.67,95.17,223.11,95.14,220.55Z"/><ellipse class="cls-44" cx="77.86" cy="205.04" rx="9.98" ry="17.28" transform="translate(-127.6 281.79) rotate(-89.69)"/><path class="cls-45" d="M132.29,229.27h0v-7.84l-4.71,1-.39-.23c-6.77-3.91-17.71-3.93-24.44-.05l-.46.28L97.73,221v8.12c-.06,2.61,1.64,5.23,5.1,7.23,6.77,3.91,17.71,3.93,24.43,0C130.64,234.4,132.31,231.83,132.29,229.27Z"/><ellipse class="cls-46" cx="115.01" cy="221.48" rx="9.98" ry="17.28" transform="translate(-107.09 335.28) rotate(-89.69)"/><path class="cls-47" d="M123.55,222.45h0v-7.4H106.47v7.4h0c0,1.25.86,2.51,2.52,3.47a13.34,13.34,0,0,0,12.07,0C122.73,225,123.56,223.71,123.55,222.45Z"/><ellipse class="cls-48" cx="115.01" cy="214.78" rx="4.93" ry="8.54" transform="translate(-100.4 328.63) rotate(-89.69)"/></g></g></svg>